<?xml version="1.0" standalone="no"?>
<!DOCTYPE svg PUBLIC "-//W3C//DTD SVG 20010904//EN"
 "http://www.w3.org/TR/2001/REC-SVG-20010904/DTD/svg10.dtd">
<svg version="1.0" xmlns="http://www.w3.org/2000/svg"
 width="300.000000pt" height="110.000000pt" viewBox="0 0 300.000000 110.000000"
 preserveAspectRatio="xMidYMid meet">
<metadata>
Created by potrace 1.10, written by Peter Selinger 2001-2011
</metadata>
<g transform="translate(0.000000,110.000000) scale(0.100000,-0.100000)"
fill="#f5de47" stroke="none">
<path d="M245 811 c-43 -26 -65 -63 -65 -111 0 -83 53 -140 130 -140 56 0 79
10 229 103 95 59 122 71 167 75 51 4 54 3 64 -23 15 -40 -4 -100 -56 -170 -50
-67 -203 -235 -214 -235 -5 0 -11 61 -15 135 -6 110 -10 135 -22 135 -13 0
-14 -10 -9 -57 3 -32 6 -105 7 -163 1 -58 3 -108 5 -111 5 -9 206 188 258 254
66 84 96 147 96 205 0 38 -5 53 -23 70 -45 42 -108 25 -242 -63 -173 -113
-231 -135 -288 -112 -41 18 -71 74 -62 116 3 16 20 41 36 57 24 23 39 29 76
29 39 0 49 -5 73 -33 15 -18 31 -46 36 -62 7 -21 13 -27 22 -21 22 14 -31 106
-75 129 -32 18 -94 14 -128 -7z m527 -43 c8 -7 18 -22 22 -33 5 -16 2 -15 -17
6 -13 14 -30 29 -38 32 -11 4 -11 6 2 6 8 1 22 -5 31 -11z"/>
<path d="M907 603 c13 -32 36 -82 49 -111 13 -29 24 -58 24 -64 0 -23 17 8 55
97 21 50 41 94 46 100 14 14 10 35 -6 35 -8 0 -15 -4 -15 -9 0 -5 -13 -38 -29
-73 -15 -35 -32 -72 -36 -83 -6 -16 -8 -17 -12 -5 -3 8 -14 35 -25 60 -12 25
-27 60 -35 78 -7 17 -20 32 -28 32 -11 0 -8 -13 12 -57z"/>
<path d="M1168 557 c-60 -129 -62 -137 -49 -137 6 0 20 18 31 40 20 39 22 40
70 40 49 0 50 -1 66 -40 9 -22 22 -40 30 -40 8 0 14 2 14 4 0 6 -110 236 -113
236 -1 -1 -23 -47 -49 -103z m74 3 l17 -40 -41 0 c-22 0 -38 3 -36 8 3 4 10
22 17 40 7 17 16 32 19 32 4 0 15 -18 24 -40z"/>
<path d="M1360 542 c0 -100 3 -122 15 -122 11 0 15 18 17 86 l3 85 70 -85 c39
-47 72 -85 75 -85 3 -1 6 53 8 119 3 103 1 120 -12 120 -13 0 -16 -16 -16 -92
l0 -92 -22 30 c-13 17 -49 59 -80 94 l-58 63 0 -121z"/>
<path d="M1607 642 c-28 -31 -20 -58 28 -100 46 -41 56 -70 30 -92 -17 -14
-51 -5 -59 15 -7 19 -26 20 -26 2 0 -42 83 -63 113 -29 30 33 21 65 -33 116
-42 40 -48 50 -40 67 13 23 33 25 50 4 13 -16 40 -20 40 -7 0 17 -37 42 -62
42 -14 0 -32 -8 -41 -18z"/>
<path d="M1842 648 c-6 -6 -12 -16 -12 -20 0 -4 -21 -51 -46 -103 -25 -53 -43
-99 -40 -102 10 -10 35 18 41 48 6 28 9 29 60 29 53 0 54 -1 71 -40 10 -22 24
-40 31 -40 18 0 18 -2 -31 99 -24 49 -48 101 -53 116 -6 20 -11 23 -21 13z
m30 -88 l17 -40 -41 0 c-22 0 -38 3 -36 8 3 4 10 22 17 40 7 17 16 32 19 32 4
0 15 -18 24 -40z"/>
<path d="M1990 542 c0 -105 2 -122 16 -122 14 0 16 12 13 85 -2 47 -1 85 3 85
3 0 15 -11 25 -24 39 -51 123 -147 124 -142 6 61 -1 231 -10 234 -7 2 -11 -24
-11 -85 l-1 -88 -32 35 c-17 19 -53 60 -79 90 l-48 55 0 -123z"/>
<path d="M2230 655 c-6 -71 1 -230 9 -233 8 -3 11 35 11 117 0 74 -4 121 -10
121 -5 0 -10 -2 -10 -5z"/>
<path d="M2277 654 c-11 -12 3 -24 29 -24 24 0 24 0 24 -106 0 -80 3 -105 13
-101 8 3 12 33 12 105 0 98 1 101 23 104 12 2 24 8 25 13 2 11 -115 20 -126 9z"/>
<path d="M2420 652 c0 -4 16 -31 35 -59 30 -45 35 -60 35 -113 0 -47 3 -60 15
-60 12 0 15 13 15 61 0 54 5 69 35 115 39 59 41 64 20 64 -8 0 -24 -17 -34
-37 -37 -70 -36 -69 -67 -14 -25 44 -54 67 -54 43z"/>
</g>
</svg>
