<svg width="81" height="81" viewBox="0 0 81 81" fill="none" xmlns="http://www.w3.org/2000/svg">
<rect width="81" height="81" fill="#E3E3E3"/>
<rect width="1920" height="3365.63" transform="translate(-666.387 -862.516)" fill="#F7F5F1"/>
<g filter="url(#filter0_d_943_38090)">
<g clipPath="url(#clip0_943_38090)">
<path d="M-154.387 -797.516H741.613V1897.11C741.613 1901.53 738.031 1905.11 733.613 1905.11H-146.387C-150.805 1905.11 -154.387 1901.53 -154.387 1897.11V-797.516Z" fill="white"/>
<rect width="896" height="256" transform="translate(-154.387 -199.886)" fill="url(#paint0_linear_943_38090)"/>
<rect x="-90.387" y="-55.8856" width="768" height="279" rx="6" fill="white"/>
<g clipPath="url(#clip1_943_38090)">
<path d="M46.9397 26.781H15.8286C15.2392 26.781 14.674 26.5469 14.2573 26.1302C13.8405 25.7134 13.6064 25.1482 13.6064 24.5588V15.6699C13.6064 15.0805 13.8405 14.5153 14.2573 14.0986C14.674 13.6818 15.2392 13.4477 15.8286 13.4477H46.9397C47.5291 13.4477 48.0943 13.6818 48.5111 14.0986C48.9278 14.5153 49.1619 15.0805 49.1619 15.6699V24.5588C49.1619 25.1482 48.9278 25.7134 48.5111 26.1302C48.0943 26.5469 47.5291 26.781 46.9397 26.781ZM18.0508 22.3366H44.7175V17.7588H18.0508V22.3366Z" fill="#404040"/>
<path d="M46.9397 31.4033H15.8286C15.2392 31.4033 14.674 31.6374 14.2573 32.0541C13.8405 32.4709 13.6064 33.0361 13.6064 33.6255V42.3366C13.6064 42.926 13.8405 43.4912 14.2573 43.9079C14.674 44.3247 15.2392 44.5588 15.8286 44.5588H41.0731L49.1619 36.3366V33.6255C49.1619 33.0361 48.9278 32.4709 48.5111 32.0541C48.0943 31.6374 47.5291 31.4033 46.9397 31.4033ZM44.7175 40.1144H18.0508V35.6699H44.7175V40.1144Z" fill="#404040"/>
<path d="M24.8508 70.1366V70.0033L25.5619 66.9144H9.16191V9.00328H53.6064V31.7811L58.0508 27.5811V6.78106C58.0508 6.19169 57.8167 5.62646 57.3999 5.20971C56.9832 4.79296 56.418 4.55884 55.8286 4.55884H6.93969C6.35032 4.55884 5.78509 4.79296 5.36834 5.20971C4.95159 5.62646 4.71747 6.19169 4.71747 6.78106V69.0033C4.71747 69.5927 4.95159 70.1579 5.36834 70.5746C5.78509 70.9914 6.35032 71.2255 6.93969 71.2255H24.7175C24.7358 70.8598 24.7803 70.4959 24.8508 70.1366Z" fill="#404040"/>
<path d="M49.1619 42.7144L47.4286 44.4699C47.8586 44.3813 48.2528 44.1672 48.5613 43.8548C48.8697 43.5423 49.0788 43.1455 49.1619 42.7144Z" fill="#404040"/>
<path d="M13.6064 59.9811C13.6064 60.5704 13.8405 61.1357 14.2573 61.5524C14.674 61.9692 15.2392 62.2033 15.8286 62.2033H26.5842L27.2508 59.3144L27.5397 58.0922V57.9811H18.0508V53.4477H32.1397L36.5842 49.0033H15.8286C15.2392 49.0033 14.674 49.2374 14.2573 49.6542C13.8405 50.0709 13.6064 50.6361 13.6064 51.2255V59.9811Z" fill="#404040"/>
<path d="M74.6953 37.1588L67.2064 29.6699C66.874 29.3366 66.4792 29.0722 66.0445 28.8918C65.6097 28.7114 65.1437 28.6185 64.673 28.6185C64.2024 28.6185 63.7363 28.7114 63.3016 28.8918C62.8669 29.0722 62.4721 29.3366 62.1397 29.6699L31.673 60.3144L29.1619 71.0032C29.0679 71.4644 29.0658 71.9395 29.1557 72.4015C29.2456 72.8634 29.4258 73.3031 29.6859 73.6953C29.946 74.0875 30.2809 74.4246 30.6715 74.6871C31.062 74.9497 31.5006 75.1326 31.9619 75.2255C32.191 75.2485 32.4218 75.2485 32.6508 75.2255C32.9231 75.2698 33.2008 75.2698 33.473 75.2255L44.2508 72.8477L74.6953 42.3366C75.0279 42.0061 75.2918 41.6131 75.4719 41.1803C75.652 40.7474 75.7448 40.2832 75.7448 39.8143C75.7448 39.3455 75.652 38.8813 75.4719 38.4484C75.2918 38.0156 75.0279 37.6226 74.6953 37.2921V37.1588ZM41.9842 68.8032L33.8508 70.6032L35.8286 62.5366L58.673 39.4477L64.9397 45.7144L41.9842 68.8032ZM67.4508 43.2032L61.1842 36.9366L64.7175 33.4477L71.0286 39.7588L67.4508 43.2032Z" fill="#404040"/>
</g>
</g>
</g>
<defs>
<filter id="filter0_d_943_38090" x="-192.387" y="-810.516" width="972" height="2778.63" filterUnits="userSpaceOnUse" color-interpolation-filters="sRGB">
<feFlood flood-opacity="0" result="BackgroundImageFix"/>
<feColorMatrix in="SourceAlpha" type="matrix" values="0 0 0 0 0 0 0 0 0 0 0 0 0 0 0 0 0 0 127 0" result="hardAlpha"/>
<feMorphology radius="12" operator="erode" in="SourceAlpha" result="effect1_dropShadow_943_38090"/>
<feOffset dy="25"/>
<feGaussianBlur stdDeviation="25"/>
<feComposite in2="hardAlpha" operator="out"/>
<feColorMatrix type="matrix" values="0 0 0 0 0 0 0 0 0 0 0 0 0 0 0 0 0 0 0.25 0"/>
<feBlend mode="normal" in2="BackgroundImageFix" result="effect1_dropShadow_943_38090"/>
<feBlend mode="normal" in="SourceGraphic" in2="effect1_dropShadow_943_38090" result="shape"/>
</filter>
<linearGradient id="paint0_linear_943_38090" x1="448" y1="0" x2="448" y2="256" gradientUnits="userSpaceOnUse">
<stop stop-color="#9B050F"/>
<stop offset="1" stop-color="#94b4bc"/>
</linearGradient>
<clipPath id="clip0_943_38090">
<path d="M-154.387 -797.516H741.613V1897.11C741.613 1901.53 738.031 1905.11 733.613 1905.11H-146.387C-150.805 1905.11 -154.387 1901.53 -154.387 1897.11V-797.516Z" fill="white"/>
</clipPath>
<clipPath id="clip1_943_38090">
<rect width="80" height="80" fill="white" transform="translate(0.273041 0.11438)"/>
</clipPath>
</defs>
</svg>
