<svg width="81" height="81" viewBox="0 0 81 81" fill="none" xmlns="http://www.w3.org/2000/svg">
<path d="M29.9264 37.4477C26.3901 37.4477 22.9988 36.0429 20.4983 33.5424C17.9978 31.042 16.593 27.6506 16.593 24.1144V13.4477C16.593 12.7404 16.874 12.0622 17.3741 11.5621C17.8742 11.062 18.5524 10.781 19.2597 10.781H21.9264C22.6336 10.781 23.3119 10.5001 23.812 9.99998C24.3121 9.49988 24.593 8.8216 24.593 8.11436C24.593 7.40712 24.3121 6.72884 23.812 6.22874C23.3119 5.72864 22.6336 5.44769 21.9264 5.44769H19.2597C17.138 5.44769 15.1031 6.29055 13.6028 7.79084C12.1025 9.29113 11.2597 11.326 11.2597 13.4477V24.1144C11.2631 27.127 11.9977 30.0938 13.4005 32.7599C14.8032 35.426 16.8322 37.7119 19.313 39.421C21.6966 41.5224 23.6296 44.085 24.9954 46.9541C26.3612 49.8232 27.1315 52.9393 27.2597 56.1144C27.2597 61.0651 29.2264 65.813 32.727 69.3137C36.2277 72.8144 40.9757 74.781 45.9264 74.781C50.8771 74.781 55.625 72.8144 59.1257 69.3137C62.6264 65.813 64.593 61.0651 64.593 56.1144V53.0744C67.1068 52.4253 69.2975 50.8818 70.7546 48.733C72.2117 46.5843 72.8351 43.9779 72.508 41.4024C72.1809 38.8269 70.9257 36.4591 68.9776 34.7428C67.0296 33.0266 64.5226 32.0797 61.9264 32.0797C59.3302 32.0797 56.8231 33.0266 54.8751 34.7428C52.9271 36.4591 51.6718 38.8269 51.3447 41.4024C51.0176 43.9779 51.641 46.5843 53.0981 48.733C54.5552 50.8818 56.7459 52.4253 59.2597 53.0744V56.1144C59.2597 59.6506 57.8549 63.042 55.3544 65.5424C52.854 68.0429 49.4626 69.4477 45.9264 69.4477C42.3901 69.4477 38.9988 68.0429 36.4983 65.5424C33.9978 63.042 32.593 59.6506 32.593 56.1144C32.728 52.9354 33.5066 49.8169 34.8817 46.9476C36.2568 44.0782 38.1997 41.5177 40.593 39.421C43.064 37.7059 45.0826 35.4175 46.4758 32.7517C47.8691 30.086 48.5956 27.1223 48.593 24.1144V13.4477C48.593 11.326 47.7502 9.29113 46.2499 7.79084C44.7496 6.29055 42.7148 5.44769 40.593 5.44769H37.9264C37.2191 5.44769 36.5408 5.72864 36.0407 6.22874C35.5406 6.72884 35.2597 7.40712 35.2597 8.11436C35.2597 8.8216 35.5406 9.49988 36.0407 9.99998C36.5408 10.5001 37.2191 10.781 37.9264 10.781H40.593C41.3003 10.781 41.9785 11.062 42.4786 11.5621C42.9787 12.0622 43.2597 12.7404 43.2597 13.4477V24.1144C43.2597 25.8653 42.9148 27.5991 42.2448 29.2168C41.5747 30.8345 40.5926 32.3043 39.3544 33.5424C38.1163 34.7806 36.6465 35.7627 35.0288 36.4328C33.4111 37.1028 31.6773 37.4477 29.9264 37.4477ZM61.9264 48.1144C60.5119 48.1144 59.1553 47.5525 58.1551 46.5523C57.1549 45.5521 56.593 44.1955 56.593 42.781C56.593 41.3665 57.1549 40.01 58.1551 39.0098C59.1553 38.0096 60.5119 37.4477 61.9264 37.4477C63.3408 37.4477 64.6974 38.0096 65.6976 39.0098C66.6978 40.01 67.2597 41.3665 67.2597 42.781C67.2597 44.1955 66.6978 45.5521 65.6976 46.5523C64.6974 47.5525 63.3408 48.1144 61.9264 48.1144Z" fill="#404040"/>
</svg>
