<svg width="81" height="81" viewBox="0 0 81 81" fill="none" xmlns="http://www.w3.org/2000/svg">
<path d="M60.943 5.11438H20.943C19.6169 5.11438 18.3452 5.64116 17.4075 6.57885C16.4698 7.51653 15.943 8.7883 15.943 10.1144V20.1144C15.943 21.4405 16.4698 22.7122 17.4075 23.6499C18.3452 24.5876 19.6169 25.1144 20.943 25.1144V70.1144C20.943 71.4405 21.4698 72.7122 22.4075 73.6499C23.3452 74.5876 24.6169 75.1144 25.943 75.1144H55.943C57.2691 75.1144 58.5409 74.5876 59.4785 73.6499C60.4162 72.7122 60.943 71.4405 60.943 70.1144V25.1144C62.2691 25.1144 63.5409 24.5876 64.4785 23.6499C65.4162 22.7122 65.943 21.4405 65.943 20.1144V10.1144C65.943 8.7883 65.4162 7.51653 64.4785 6.57885C63.5409 5.64116 62.2691 5.11438 60.943 5.11438ZM25.943 35.1144H33.443V60.1144H25.943V35.1144ZM55.943 70.1144H25.943V65.1144H38.443V30.1144H25.943V25.1144H55.943V70.1144ZM20.943 20.1144V10.1144H60.943V20.1144H20.943Z" fill="#404040"/>
</svg>
